<svg width="17" height="18" viewBox="0 0 17 18" fill="none" xmlns="http://www.w3.org/2000/svg">
<path d="M3.58632 1L1.14233 4.2V15.4C1.14233 15.8243 1.31399 16.2313 1.61955 16.5314C1.92511 16.8314 2.33954 17 2.77166 17H14.1769C14.6091 17 15.0235 16.8314 15.3291 16.5314C15.6346 16.2313 15.8063 15.8243 15.8063 15.4V4.2L13.3623 1H3.58632Z" stroke="#090F47" stroke-opacity="0.45" stroke-width="1.2" stroke-linecap="round" stroke-linejoin="round"/>
<path d="M1.14233 4.19995H15.8063" stroke="#090F47" stroke-opacity="0.45" stroke-width="1.2" stroke-linecap="round" stroke-linejoin="round"/>
<path d="M11.7329 7.40002C11.7329 8.24872 11.3896 9.06265 10.7784 9.66277C10.1673 10.2629 9.33848 10.6 8.47423 10.6C7.60998 10.6 6.78113 10.2629 6.17001 9.66277C5.5589 9.06265 5.21558 8.24872 5.21558 7.40002" stroke="#090F47" stroke-opacity="0.45" stroke-width="1.2" stroke-linecap="round" stroke-linejoin="round"/>
</svg>
