<svg width="28" height="28" viewBox="0 0 28 28" fill="none" xmlns="http://www.w3.org/2000/svg">
<path d="M18.2524 10.3725C18.2524 8.88456 17.6755 7.45759 16.6486 6.40548C15.6216 5.35337 14.2288 4.7623 12.7765 4.7623C11.3241 4.7623 9.9313 5.35337 8.90436 6.40548C7.87742 7.45759 7.30049 8.88456 7.30049 10.3725C7.30049 16.9177 4.5625 18.7877 4.5625 18.7877H20.9904C20.9904 18.7877 18.2524 16.9177 18.2524 10.3725Z" stroke="#090F47" stroke-width="1.2" stroke-linecap="round" stroke-linejoin="round"/>
<path d="M14.3553 22.5278C14.1949 22.8112 13.9646 23.0464 13.6875 23.2099C13.4104 23.3735 13.0962 23.4595 12.7764 23.4595C12.4566 23.4595 12.1425 23.3735 11.8654 23.2099C11.5883 23.0464 11.358 22.8112 11.1975 22.5278" stroke="#090F47" stroke-width="1.2" stroke-linecap="round" stroke-linejoin="round"/>
<path d="M18.25 4C20.4831 4 22.3125 5.85511 22.3125 8.16699C22.3123 10.4787 20.483 12.333 18.25 12.333C16.017 12.333 14.1877 10.4787 14.1875 8.16699C14.1875 5.85511 16.0169 4 18.25 4Z" fill="#FF0000" stroke="white"/>
</svg>
