<svg width="28" height="28" viewBox="0 0 28 28" fill="none" xmlns="http://www.w3.org/2000/svg">
<path d="M9.06562 4.7623L6.32812 8.50175V21.5898C6.32812 22.0857 6.5204 22.5613 6.86266 22.9119C7.20491 23.2626 7.6691 23.4596 8.15312 23.4596H20.9281C21.4121 23.4596 21.8763 23.2626 22.2186 22.9119C22.5608 22.5613 22.7531 22.0857 22.7531 21.5898V8.50175L20.0156 4.7623H9.06562Z" stroke="#090F47" stroke-width="1.2" stroke-linecap="round" stroke-linejoin="round"/>
<path d="M6.32812 8.50174H22.7531" stroke="#090F47" stroke-width="1.2" stroke-linecap="round" stroke-linejoin="round"/>
<path d="M18.1906 12.2411C18.1906 13.2329 17.8061 14.184 17.1216 14.8853C16.4371 15.5866 15.5087 15.9806 14.5406 15.9806C13.5726 15.9806 12.6442 15.5866 11.9597 14.8853C11.2752 14.184 10.8906 13.2329 10.8906 12.2411" stroke="#090F47" stroke-width="1.2" stroke-linecap="round" stroke-linejoin="round"/>
</svg>
